<?xml version="1.0" encoding="UTF-8"?>
<svg xmlns="http://www.w3.org/2000/svg" xmlns:xlink="http://www.w3.org/1999/xlink" version="1.1" viewBox="0 0 500 500">
  <defs>
    <style>
      .cls-1 {
        fill: none;
      }

      .cls-2 {
        clip-path: url(#clippath);
      }
    </style>
    <clipPath id="clippath">
      <path class="cls-1" d="M246,257c-.7.6-1.5.9-2.4.9s-1.7-.3-2.4-.9c-.7-.6-1-1.4-1-2.3s.3-1.7,1-2.3c.7-.6,1.5-.9,2.4-.9s1.7.3,2.4.9c.7.6,1,1.4,1,2.3s-.3,1.7-1,2.3ZM250.7,252.5c-.5-1.2-1.3-2.2-2.2-3-.9-.8-2.1-1.5-3.3-1.9-1.3-.4-2.7-.7-4.1-.7s-2.8.2-4.1.7c-1.3.4-2.4,1.1-3.3,1.9-.9.8-1.7,1.8-2.2,3-.5,1.2-.8,2.5-.8,3.9s.3,2.7.8,3.9c.5,1.2,1.3,2.2,2.2,3,.9.8,2.1,1.5,3.3,1.9,1.3.4,2.7.7,4.1.7s2.8-.2,4.1-.7c1.3-.4,2.4-1.1,3.3-1.9.9-.8,1.7-1.8,2.2-3,.5-1.2.8-2.5.8-3.9s-.3-2.7-.8-3.9Z"/>
    </clipPath>
  </defs>
  <!-- Generator: Adobe Illustrator 28.6.0, SVG Export Plug-In . SVG Version: 1.2.0 Build 709)  -->
  <g>
    <g id="Layer_1">
      <g class="cls-2">
        <image width="88" height="80" transform="translate(230.4 246.8) scale(.2)" xlink:href="icon-1.png"/>
      </g>
    </g>
  </g>
</svg>